<svg width="378" height="69" viewBox="0 0 378 69" fill="none" xmlns="http://www.w3.org/2000/svg">
<path d="M0.130207 2.81103H18.2407C21.0728 2.81103 23.6937 3.20852 26.1035 4.00349C28.5381 4.79846 30.4882 6.07787 31.954 7.84172C33.4446 9.60557 34.1898 11.9656 34.1898 14.9219C34.1898 16.81 33.8296 18.5118 33.1092 20.0272C32.4136 21.5177 31.4571 22.7475 30.2398 23.7163C29.0474 24.6604 27.7058 25.3063 26.2153 25.6541C27.5568 25.8528 28.8238 26.2379 30.0162 26.8093C31.2087 27.3807 32.2521 28.1632 33.1464 29.1569C34.0656 30.1258 34.7861 31.3431 35.3078 32.8088C35.8295 34.2746 36.0903 35.9887 36.0903 37.9513C36.0903 40.7337 35.4444 43.1808 34.1526 45.2924C32.8856 47.4041 31.0472 49.0561 28.6375 50.2486C26.2277 51.4162 23.3211 52 19.9176 52H0.130207V2.81103ZM13.0982 41.715H16.4893C17.7811 41.715 18.8618 41.5411 19.7313 41.1933C20.6256 40.8455 21.2964 40.299 21.7435 39.5537C22.1907 38.8084 22.4143 37.852 22.4143 36.6843C22.4143 34.8957 21.8802 33.6535 20.8119 32.9579C19.7437 32.2623 18.2655 31.9145 16.3775 31.9145H13.0982V41.715ZM13.0982 21.8531H16.1912C17.2842 21.8531 18.2034 21.6916 18.9487 21.3687C19.7188 21.0209 20.3027 20.5116 20.7001 19.8408C21.1225 19.1452 21.3336 18.2882 21.3336 17.2696C21.3336 15.5803 20.8616 14.4624 19.9176 13.9158C18.9736 13.3693 17.6693 13.096 16.0048 13.096H13.0982V21.8531ZM58.3995 52.8943C54.9711 52.8943 51.9279 52.2112 49.2697 50.8448C46.6115 49.4784 44.5247 47.5904 43.0093 45.1806C41.4939 42.746 40.7361 39.9512 40.7361 36.7961C40.7361 33.6411 41.4939 30.8463 43.0093 28.4117C44.5247 25.9522 46.6115 24.0269 49.2697 22.6357C51.9279 21.2196 54.9711 20.5116 58.3995 20.5116C61.8029 20.5116 64.8089 21.2196 67.4174 22.6357C70.0508 24.0269 72.1003 25.9522 73.5661 28.4117C75.0566 30.8463 75.8019 33.6411 75.8019 36.7961C75.8019 39.9512 75.0566 42.746 73.5661 45.1806C72.1003 47.5904 70.0508 49.4784 67.4174 50.8448C64.8089 52.2112 61.8029 52.8943 58.3995 52.8943ZM58.3995 42.1249C59.418 42.1249 60.2999 41.9138 61.0452 41.4914C61.7905 41.0443 62.3619 40.4108 62.7594 39.591C63.1569 38.7711 63.3556 37.8147 63.3556 36.7216C63.3556 35.6534 63.1569 34.7093 62.7594 33.8895C62.3619 33.0697 61.7905 32.4362 61.0452 31.989C60.2999 31.517 59.418 31.281 58.3995 31.281C57.3561 31.281 56.4617 31.517 55.7164 31.989C54.9711 32.4362 54.3873 33.0697 53.965 33.8895C53.5427 34.7093 53.3315 35.6534 53.3315 36.7216C53.3315 37.8147 53.5427 38.7711 53.965 39.591C54.3873 40.4108 54.9711 41.0443 55.7164 41.4914C56.4617 41.9138 57.3561 42.1249 58.3995 42.1249ZM103.747 20.5116C105.958 20.5116 108.107 20.9464 110.194 21.8159C112.281 22.6854 113.995 24.0766 115.336 25.9895C116.703 27.9024 117.386 30.3991 117.386 33.4796V52H104.157V35.6037C104.157 33.7405 103.71 32.312 102.816 31.3183C101.921 30.2997 100.729 29.7904 99.2383 29.7904C98.2694 29.7904 97.3626 30.0389 96.518 30.5357C95.6733 31.0326 94.9901 31.7282 94.4684 32.6225C93.9716 33.5169 93.7232 34.5603 93.7232 35.7527V52H80.5316V21.406H93.7232V25.5423C94.0461 24.7225 94.6796 23.9399 95.6236 23.1946C96.5677 22.4245 97.7477 21.791 99.1638 21.2942C100.58 20.7725 102.108 20.5116 103.747 20.5116ZM136.238 52.8943C133.207 52.8943 130.611 52.1491 128.45 50.6585C126.289 49.1679 124.612 47.1929 123.419 44.7334C122.252 42.274 121.668 39.6034 121.668 36.7216C121.668 33.8398 122.252 31.1692 123.419 28.7098C124.612 26.2503 126.289 24.2753 128.45 22.7847C130.611 21.2693 133.207 20.5116 136.238 20.5116C138.077 20.5116 139.716 20.7849 141.157 21.3314C142.598 21.8531 143.766 22.499 144.66 23.2692C145.579 24.0145 146.163 24.7225 146.411 25.3932V0.724225H159.566V52H146.523V47.4165C145.952 48.3854 145.132 49.2921 144.064 50.1368C143.02 50.9566 141.816 51.6149 140.449 52.1118C139.108 52.6335 137.704 52.8943 136.238 52.8943ZM140.449 42.6466C141.617 42.6466 142.648 42.3858 143.542 41.8641C144.436 41.3424 145.132 40.6344 145.629 39.74C146.151 38.8208 146.411 37.8147 146.411 36.7216C146.411 35.6285 146.151 34.6348 145.629 33.7405C145.132 32.8213 144.436 32.1008 143.542 31.5791C142.648 31.0326 141.617 30.7593 140.449 30.7593C139.331 30.7593 138.325 31.0326 137.431 31.5791C136.536 32.1008 135.828 32.8213 135.307 33.7405C134.81 34.6348 134.561 35.6285 134.561 36.7216C134.561 37.8147 134.81 38.8208 135.307 39.74C135.828 40.6344 136.536 41.3424 137.431 41.8641C138.325 42.3858 139.331 42.6466 140.449 42.6466ZM166.219 2.81103H184.329C187.161 2.81103 189.782 3.20852 192.192 4.00349C194.627 4.79846 196.577 6.07787 198.042 7.84172C199.533 9.60557 200.278 11.9656 200.278 14.9219C200.278 16.81 199.918 18.5118 199.198 20.0272C198.502 21.5177 197.546 22.7475 196.328 23.7163C195.136 24.6604 193.794 25.3063 192.304 25.6541C193.645 25.8528 194.912 26.2379 196.105 26.8093C197.297 27.3807 198.341 28.1632 199.235 29.1569C200.154 30.1258 200.875 31.3431 201.396 32.8088C201.918 34.2746 202.179 35.9887 202.179 37.9513C202.179 40.7337 201.533 43.1808 200.241 45.2924C198.974 47.4041 197.136 49.0561 194.726 50.2486C192.316 51.4162 189.41 52 186.006 52H166.219V2.81103ZM179.187 41.715H182.578C183.87 41.715 184.95 41.5411 185.82 41.1933C186.714 40.8455 187.385 40.299 187.832 39.5537C188.279 38.8084 188.503 37.852 188.503 36.6843C188.503 34.8957 187.969 33.6535 186.9 32.9579C185.832 32.2623 184.354 31.9145 182.466 31.9145H179.187V41.715ZM179.187 21.8531H182.28C183.373 21.8531 184.292 21.6916 185.037 21.3687C185.807 21.0209 186.391 20.5116 186.789 19.8408C187.211 19.1452 187.422 18.2882 187.422 17.2696C187.422 15.5803 186.95 14.4624 186.006 13.9158C185.062 13.3693 183.758 13.096 182.093 13.096H179.187V21.8531ZM220.24 52H207.048V21.406H220.24V25.9149H220.053C220.302 25.3684 220.799 24.6728 221.544 23.8281C222.314 22.9835 223.382 22.2258 224.749 21.555C226.14 20.8594 227.867 20.5116 229.929 20.5116C231.32 20.5116 232.636 20.7352 233.879 21.1824C235.121 21.6295 236.027 22.0643 236.599 22.4866L231.531 33.1815C231.208 32.7095 230.599 32.2375 229.705 31.7654C228.811 31.2686 227.705 31.0202 226.388 31.0202C224.898 31.0202 223.693 31.3555 222.774 32.0263C221.879 32.6722 221.233 33.4796 220.836 34.4485C220.439 35.4174 220.24 36.349 220.24 37.2433V52ZM239.473 52V21.406H252.627V52H239.473ZM246.218 16.7106C244.205 16.7106 242.491 16.0026 241.075 14.5866C239.684 13.1705 238.988 11.4812 238.988 9.51861C238.988 7.55602 239.684 5.85429 241.075 4.4134C242.491 2.97251 244.205 2.25206 246.218 2.25206C247.534 2.25206 248.739 2.58744 249.832 3.2582C250.925 3.90412 251.807 4.77362 252.478 5.86671C253.149 6.9598 253.484 8.1771 253.484 9.51861C253.484 11.4812 252.764 13.1705 251.323 14.5866C249.907 16.0026 248.205 16.7106 246.218 16.7106ZM272.632 52.8943C269.601 52.8943 267.005 52.1491 264.843 50.6585C262.682 49.1679 261.005 47.1929 259.813 44.7334C258.645 42.274 258.061 39.6034 258.061 36.7216C258.061 33.8398 258.645 31.1692 259.813 28.7098C261.005 26.2503 262.682 24.2753 264.843 22.7847C267.005 21.2693 269.601 20.5116 272.632 20.5116C274.47 20.5116 276.11 20.7849 277.551 21.3314C278.992 21.8531 280.159 22.499 281.053 23.2692C281.973 24.0145 282.556 24.7225 282.805 25.3932V0.724225H295.959V52H282.917V47.4165C282.345 48.3854 281.525 49.2921 280.457 50.1368C279.414 50.9566 278.209 51.6149 276.843 52.1118C275.501 52.6335 274.097 52.8943 272.632 52.8943ZM276.843 42.6466C278.01 42.6466 279.041 42.3858 279.936 41.8641C280.83 41.3424 281.525 40.6344 282.022 39.74C282.544 38.8208 282.805 37.8147 282.805 36.7216C282.805 35.6285 282.544 34.6348 282.022 33.7405C281.525 32.8213 280.83 32.1008 279.936 31.5791C279.041 31.0326 278.01 30.7593 276.843 30.7593C275.725 30.7593 274.719 31.0326 273.824 31.5791C272.93 32.1008 272.222 32.8213 271.7 33.7405C271.203 34.6348 270.955 35.6285 270.955 36.7216C270.955 37.8147 271.203 38.8208 271.7 39.74C272.222 40.6344 272.93 41.3424 273.824 41.8641C274.719 42.3858 275.725 42.6466 276.843 42.6466ZM318.934 68.3963C316.897 68.3963 314.798 68.2224 312.636 67.8746C310.475 67.5517 308.413 66.943 306.45 66.0487C304.513 65.1543 302.848 63.8625 301.457 62.1732L309.022 54.1613C309.643 54.8569 310.375 55.5029 311.22 56.0991C312.065 56.7202 313.071 57.217 314.239 57.5897C315.406 57.9871 316.773 58.1859 318.338 58.1859C319.754 58.1859 321.021 57.9747 322.139 57.5524C323.257 57.1301 324.126 56.4593 324.747 55.5401C325.393 54.6458 325.716 53.4906 325.716 52.0745V51.4038H338.684V52.8198C338.684 56.2481 337.802 59.1175 336.038 61.4279C334.299 63.7383 331.939 65.4773 328.958 66.6449C325.977 67.8125 322.635 68.3963 318.934 68.3963ZM325.716 52V47.4165C325.468 47.8885 324.909 48.5717 324.039 49.466C323.17 50.3355 322.014 51.1305 320.574 51.8509C319.157 52.5465 317.493 52.8943 315.58 52.8943C312.549 52.8943 309.928 52.1491 307.717 50.6585C305.506 49.1679 303.792 47.1929 302.575 44.7334C301.382 42.274 300.786 39.6034 300.786 36.7216C300.786 33.8398 301.382 31.1692 302.575 28.7098C303.792 26.2503 305.506 24.2753 307.717 22.7847C309.928 21.2693 312.549 20.5116 315.58 20.5116C317.394 20.5116 318.971 20.7849 320.313 21.3314C321.679 21.878 322.797 22.5239 323.666 23.2692C324.561 24.0145 325.194 24.7225 325.567 25.3932V21.406H338.684V52H325.716ZM313.717 36.7216C313.717 37.8147 313.978 38.8208 314.499 39.74C315.021 40.6344 315.729 41.3424 316.623 41.8641C317.518 42.3858 318.536 42.6466 319.679 42.6466C320.822 42.6466 321.828 42.3858 322.698 41.8641C323.592 41.3424 324.288 40.6344 324.784 39.74C325.306 38.8208 325.567 37.8147 325.567 36.7216C325.567 35.6285 325.306 34.6348 324.784 33.7405C324.288 32.8213 323.592 32.1008 322.698 31.5791C321.828 31.0326 320.822 30.7593 319.679 30.7593C318.536 30.7593 317.518 31.0326 316.623 31.5791C315.729 32.1008 315.021 32.8213 314.499 33.7405C313.978 34.6348 313.717 35.6285 313.717 36.7216ZM356.284 39.3674C356.383 40.1872 356.706 40.9076 357.253 41.5287C357.824 42.1249 358.569 42.597 359.489 42.9448C360.433 43.2677 361.538 43.4292 362.805 43.4292C364.047 43.4292 365.215 43.3422 366.308 43.1683C367.401 42.9696 368.37 42.7088 369.215 42.3858C370.084 42.0628 370.767 41.7026 371.264 41.3051L376.146 49.5033C375.599 49.9753 374.779 50.4722 373.686 50.9939C372.593 51.5156 371.09 51.9627 369.177 52.3354C367.289 52.708 364.867 52.8943 361.911 52.8943C358.482 52.8943 355.402 52.2857 352.669 51.0684C349.936 49.8511 347.775 48.0251 346.185 45.5905C344.595 43.1311 343.8 40.063 343.8 36.3862C343.8 33.4051 344.471 30.722 345.813 28.3371C347.154 25.9274 349.092 24.0269 351.626 22.6357C354.16 21.2196 357.228 20.5116 360.83 20.5116C364.283 20.5116 367.277 21.1203 369.811 22.3376C372.345 23.53 374.295 25.3436 375.661 27.7782C377.028 30.2128 377.711 33.2933 377.711 37.0197C377.711 37.2185 377.698 37.616 377.674 38.2122C377.674 38.8084 377.649 39.1935 377.599 39.3674H356.284ZM365.302 33.4051C365.277 32.5853 365.091 31.8524 364.743 31.2065C364.42 30.5606 363.948 30.0513 363.327 29.6786C362.706 29.306 361.948 29.1197 361.054 29.1197C360.184 29.1197 359.414 29.2936 358.743 29.6414C358.073 29.9892 357.551 30.486 357.178 31.132C356.806 31.753 356.594 32.5107 356.545 33.4051H365.302Z" fill="url(#paint0_linear_2233_6604)"/>
<defs>
<linearGradient id="paint0_linear_2233_6604" x1="336.149" y1="-13.3275" x2="292.75" y2="144.592" gradientUnits="userSpaceOnUse">
<stop stop-color="#DD0CC8"/>
<stop offset="0.345" stop-color="#BA19EB"/>
<stop offset="0.69" stop-color="#5E00FF"/>
<stop offset="1" stop-color="#3B01B7"/>
</linearGradient>
</defs>
</svg>
