<svg width="176" height="47" viewBox="0 0 176 47" fill="none" xmlns="http://www.w3.org/2000/svg">
<rect y="0.773193" width="175.49" height="45.5552" rx="22.7776" fill="white" fill-opacity="0.1"/>
<g clip-path="url(#clip0_1989_5297)">
<path d="M46.7242 20.094L46.472 20.6743C46.4326 20.7688 46.3661 20.8495 46.2809 20.9063C46.1957 20.9631 46.0956 20.9934 45.9932 20.9934C45.8908 20.9934 45.7907 20.9631 45.7055 20.9063C45.6203 20.8495 45.5538 20.7688 45.5143 20.6743L45.2621 20.094C44.8186 19.0673 44.0065 18.2442 42.9859 17.787L42.2076 17.4394C42.1132 17.396 42.0332 17.3264 41.9772 17.2389C41.9211 17.1514 41.8913 17.0496 41.8913 16.9457C41.8913 16.8418 41.9211 16.74 41.9772 16.6525C42.0332 16.565 42.1132 16.4954 42.2076 16.452L42.9428 16.1249C43.9891 15.6547 44.8151 14.8011 45.2508 13.74L45.5102 13.1135C45.5483 13.0164 45.6148 12.9331 45.7009 12.8744C45.7871 12.8157 45.8889 12.7843 45.9932 12.7843C46.0974 12.7843 46.1993 12.8157 46.2854 12.8744C46.3716 12.9331 46.438 13.0164 46.4761 13.1135L46.7355 13.7389C47.1708 14.8002 47.9965 15.6542 49.0425 16.1249L49.7787 16.453C49.8729 16.4966 49.9525 16.5661 50.0084 16.6535C50.0643 16.7409 50.0939 16.8425 50.0939 16.9462C50.0939 17.0499 50.0643 17.1515 50.0084 17.2389C49.9525 17.3262 49.8729 17.3958 49.7787 17.4394L48.9995 17.7859C47.9791 18.2436 47.1673 19.0671 46.7242 20.094ZM37.7905 13.8107C32.1275 13.8107 27.5371 18.4012 27.5371 24.0641C27.5371 25.8102 27.9729 27.4539 28.7429 28.8924L27.5371 34.3175L32.9622 33.1117C34.4476 33.9056 36.1062 34.3198 37.7905 34.3175C43.4534 34.3175 48.0439 29.727 48.0439 24.0641C48.0439 23.6512 48.0199 23.2445 47.9721 22.8439L45.9358 23.0849C45.974 23.4062 45.9932 23.7326 45.9932 24.0641C45.9932 26.2396 45.129 28.326 43.5907 29.8643C42.0524 31.4026 39.966 32.2668 37.7905 32.2668C36.4435 32.2691 35.117 31.938 33.9291 31.303L33.2595 30.9451L30.2378 31.6167L30.9094 28.5951L30.5506 27.9255C29.9159 26.7375 29.5852 25.411 29.5878 24.0641C29.5875 22.812 29.8738 21.5765 30.4248 20.4522C30.9758 19.3279 31.7768 18.3447 32.7666 17.5778C33.7563 16.811 34.9084 16.2809 36.1347 16.0282C37.361 15.7754 38.6289 15.8068 39.8412 16.1198L40.3518 14.1337C39.5315 13.9225 38.6733 13.8107 37.7905 13.8107ZM34.7145 24.0641H32.6638C32.6638 25.4238 33.2039 26.7278 34.1654 27.6892C35.1268 28.6506 36.4308 29.1908 37.7905 29.1908C39.1502 29.1908 40.4542 28.6506 41.4156 27.6892C42.377 26.7278 42.9172 25.4238 42.9172 24.0641H40.8665C40.8665 24.8799 40.5424 25.6623 39.9656 26.2392C39.3887 26.816 38.6063 27.1401 37.7905 27.1401C36.9747 27.1401 36.1923 26.816 35.6154 26.2392C35.0385 25.6623 34.7145 24.8799 34.7145 24.0641Z" fill="url(#paint0_linear_1989_5297)"/>
</g>
<path d="M67.9111 23.2758C68.5673 23.393 69.1239 23.7387 69.5809 24.3129C70.0379 24.8871 70.2664 25.5374 70.2664 26.2639C70.2664 26.885 70.1023 27.4474 69.7742 27.9513C69.4578 28.4434 68.995 28.836 68.3856 29.1289C67.7763 29.4102 67.0674 29.5508 66.2588 29.5508H61.3725V17.3349H66.0303C66.8623 17.3349 67.5771 17.4755 68.1747 17.7567C68.7723 18.0379 69.2235 18.4188 69.5281 18.8992C69.8328 19.3679 69.9851 19.8952 69.9851 20.4811C69.9851 21.1842 69.7976 21.7701 69.4227 22.2388C69.0477 22.7075 68.5438 23.0532 67.9111 23.2758ZM63.3762 22.4673H65.8546C66.5108 22.4673 67.0205 22.3208 67.3838 22.0279C67.7587 21.7232 67.9462 21.2897 67.9462 20.7272C67.9462 20.1764 67.7587 19.7487 67.3838 19.4441C67.0205 19.1277 66.5108 18.9695 65.8546 18.9695H63.3762V22.4673ZM66.0831 27.9161C66.7627 27.9161 67.2959 27.7521 67.6826 27.424C68.0693 27.0959 68.2626 26.6389 68.2626 26.053C68.2626 25.4554 68.0575 24.9808 67.6474 24.6293C67.2373 24.2777 66.6924 24.102 66.0128 24.102H63.3762V27.9161H66.0831ZM76.9962 29.709C76.0822 29.709 75.2561 29.5039 74.5179 29.0938C73.7797 28.6719 73.1996 28.086 72.7778 27.3361C72.3559 26.5744 72.145 25.6956 72.145 24.6996C72.145 23.7153 72.3618 22.8423 72.7954 22.0806C73.2289 21.3189 73.8207 20.7331 74.5706 20.3229C75.3206 19.9128 76.1584 19.7077 77.0841 19.7077C78.0098 19.7077 78.8477 19.9128 79.5976 20.3229C80.3476 20.7331 80.9393 21.3189 81.3729 22.0806C81.8064 22.8423 82.0232 23.7153 82.0232 24.6996C82.0232 25.6839 81.8006 26.5569 81.3553 27.3185C80.91 28.0802 80.3007 28.6719 79.5273 29.0938C78.7656 29.5039 77.922 29.709 76.9962 29.709ZM76.9962 27.9689C77.5118 27.9689 77.9923 27.8458 78.4375 27.5997C78.8945 27.3537 79.2637 26.9846 79.5449 26.4924C79.8261 26.0003 79.9667 25.4026 79.9667 24.6996C79.9667 23.9965 79.832 23.4047 79.5625 22.9243C79.293 22.4321 78.9356 22.063 78.4903 21.817C78.045 21.5709 77.5646 21.4478 77.049 21.4478C76.5334 21.4478 76.053 21.5709 75.6077 21.817C75.1741 22.063 74.8284 22.4321 74.5706 22.9243C74.3128 23.4047 74.1839 23.9965 74.1839 24.6996C74.1839 25.7425 74.4476 26.551 74.9749 27.1252C75.5139 27.6876 76.1877 27.9689 76.9962 27.9689ZM89.242 19.7077C90.0036 19.7077 90.6833 19.8659 91.2809 20.1823C91.8902 20.4987 92.3648 20.9674 92.7046 21.5885C93.0444 22.2095 93.2143 22.9595 93.2143 23.8383V29.5508H91.2282V24.1371C91.2282 23.27 91.0114 22.6079 90.5778 22.1509C90.1442 21.6822 89.5525 21.4478 88.8025 21.4478C88.0526 21.4478 87.455 21.6822 87.0097 22.1509C86.5761 22.6079 86.3594 23.27 86.3594 24.1371V29.5508H84.3556V19.8659H86.3594V20.9733C86.6875 20.5749 87.1034 20.2643 87.6073 20.0417C88.1229 19.8191 88.6678 19.7077 89.242 19.7077ZM95.4539 24.6644C95.4539 23.6918 95.6531 22.8306 96.0515 22.0806C96.4616 21.3307 97.0124 20.7506 97.7037 20.3405C98.4068 19.9187 99.186 19.7077 100.041 19.7077C100.674 19.7077 101.295 19.8483 101.905 20.1296C102.526 20.3991 103.018 20.7623 103.381 21.2193V16.5439H105.402V29.5508H103.381V28.0919C103.053 28.5606 102.596 28.9473 102.01 29.252C101.436 29.5566 100.774 29.709 100.024 29.709C99.1802 29.709 98.4068 29.4981 97.7037 29.0762C97.0124 28.6426 96.4616 28.045 96.0515 27.2834C95.6531 26.51 95.4539 25.637 95.4539 24.6644ZM103.381 24.6996C103.381 24.0316 103.24 23.4516 102.959 22.9595C102.69 22.4673 102.332 22.0923 101.887 21.8345C101.442 21.5767 100.961 21.4478 100.446 21.4478C99.9301 21.4478 99.4497 21.5767 99.0044 21.8345C98.5591 22.0806 98.1959 22.4497 97.9146 22.9419C97.6451 23.4223 97.5104 23.9965 97.5104 24.6644C97.5104 25.3323 97.6451 25.9182 97.9146 26.4221C98.1959 26.926 98.5591 27.3127 99.0044 27.5822C99.4614 27.84 99.9418 27.9689 100.446 27.9689C100.961 27.9689 101.442 27.84 101.887 27.5822C102.332 27.3244 102.69 26.9494 102.959 26.4573C103.24 25.9534 103.381 25.3675 103.381 24.6996ZM107.718 23.4165C107.718 22.2212 107.993 21.149 108.544 20.1999C109.106 19.2507 109.862 18.5125 110.811 17.9852C111.772 17.4462 112.821 17.1767 113.958 17.1767C115.258 17.1767 116.413 17.4989 117.42 18.1434C118.44 18.7762 119.178 19.6784 119.635 20.8502H117.227C116.911 20.2057 116.471 19.7253 115.909 19.4089C115.346 19.0925 114.696 18.9344 113.958 18.9344C113.149 18.9344 112.428 19.116 111.796 19.4792C111.163 19.8425 110.665 20.3639 110.302 21.0436C109.95 21.7232 109.774 22.5142 109.774 23.4165C109.774 24.3187 109.95 25.1097 110.302 25.7893C110.665 26.469 111.163 26.9963 111.796 27.3712C112.428 27.7345 113.149 27.9161 113.958 27.9161C114.696 27.9161 115.346 27.7579 115.909 27.4416C116.471 27.1252 116.911 26.6447 117.227 26.0003H119.635C119.178 27.172 118.44 28.0743 117.42 28.7071C116.413 29.3399 115.258 29.6562 113.958 29.6562C112.809 29.6562 111.761 29.3926 110.811 28.8653C109.862 28.3263 109.106 27.5822 108.544 26.633C107.993 25.6839 107.718 24.6117 107.718 23.4165ZM127.341 19.7077C128.08 19.7077 128.736 19.8659 129.31 20.1823C129.896 20.4987 130.353 20.9674 130.681 21.5885C131.021 22.2095 131.191 22.9595 131.191 23.8383V29.5508H129.204V24.1371C129.204 23.27 128.988 22.6079 128.554 22.1509C128.121 21.6822 127.529 21.4478 126.779 21.4478C126.029 21.4478 125.431 21.6822 124.986 22.1509C124.552 22.6079 124.336 23.27 124.336 24.1371V29.5508H122.332V16.5439H124.336V20.9908C124.676 20.5807 125.103 20.2643 125.619 20.0417C126.146 19.8191 126.72 19.7077 127.341 19.7077ZM133.43 24.6644C133.43 23.6918 133.629 22.8306 134.028 22.0806C134.438 21.3307 134.989 20.7506 135.68 20.3405C136.383 19.9187 137.157 19.7077 138 19.7077C138.762 19.7077 139.424 19.8601 139.986 20.1647C140.561 20.4577 141.018 20.8268 141.357 21.2721V19.8659H143.379V29.5508H141.357V28.1095C141.018 28.5665 140.555 28.9473 139.969 29.252C139.383 29.5566 138.715 29.709 137.965 29.709C137.133 29.709 136.371 29.4981 135.68 29.0762C134.989 28.6426 134.438 28.045 134.028 27.2834C133.629 26.51 133.43 25.637 133.43 24.6644ZM141.357 24.6996C141.357 24.0316 141.217 23.4516 140.936 22.9595C140.666 22.4673 140.309 22.0923 139.863 21.8345C139.418 21.5767 138.938 21.4478 138.422 21.4478C137.906 21.4478 137.426 21.5767 136.981 21.8345C136.535 22.0806 136.172 22.4497 135.891 22.9419C135.621 23.4223 135.487 23.9965 135.487 24.6644C135.487 25.3323 135.621 25.9182 135.891 26.4221C136.172 26.926 136.535 27.3127 136.981 27.5822C137.438 27.84 137.918 27.9689 138.422 27.9689C138.938 27.9689 139.418 27.84 139.863 27.5822C140.309 27.3244 140.666 26.9494 140.936 26.4573C141.217 25.9534 141.357 25.3675 141.357 24.6996ZM148.7 21.5006V26.8615C148.7 27.2248 148.782 27.4884 148.946 27.6525C149.122 27.8048 149.415 27.881 149.825 27.881H151.055V29.5508H149.473C148.571 29.5508 147.88 29.3399 147.399 28.918C146.919 28.4962 146.679 27.8107 146.679 26.8615V21.5006H145.536V19.8659H146.679V17.4579H148.7V19.8659H151.055V21.5006H148.7Z" fill="url(#paint1_linear_1989_5297)"/>
<defs>
<linearGradient id="paint0_linear_1989_5297" x1="28.7243" y1="12.7843" x2="51.1704" y2="15.9058" gradientUnits="userSpaceOnUse">
<stop stop-color="#7E6DF1"/>
<stop offset="1" stop-color="#E25FB2"/>
</linearGradient>
<linearGradient id="paint1_linear_1989_5297" x1="64.8963" y1="10.5508" x2="141.345" y2="46.4631" gradientUnits="userSpaceOnUse">
<stop stop-color="#7E6DF1"/>
<stop offset="1" stop-color="#E25FB2"/>
</linearGradient>
<clipPath id="clip0_1989_5297">
<rect width="22.5568" height="33.8372" fill="white" transform="translate(27.5371 6.63202)"/>
</clipPath>
</defs>
</svg>
