<svg width="226" height="224" viewBox="0 0 226 224" fill="none" xmlns="http://www.w3.org/2000/svg">
<path d="M52.3506 139.786C53.7578 138.002 55.038 136.163 56.5393 134.535C59.4117 131.419 62.8405 129.025 66.5737 127.077C66.849 126.933 67.0858 126.713 67.4482 126.45C67.1084 126.301 66.9363 126.21 66.7548 126.148C63.5205 125.036 60.5194 123.431 57.8113 121.354C54.6012 118.891 51.7444 116.04 49.5555 112.558C47.8211 109.799 46.3077 106.926 45.3843 103.785C44.5635 100.993 43.7691 98.1784 43.8617 95.2089C43.8864 94.4176 43.9033 93.6227 43.8591 92.8333C43.6424 88.9646 44.473 85.2652 45.7293 81.6684C47.3417 77.0523 49.8363 72.9724 53.153 69.3809C56.3925 65.873 60.1955 63.1764 64.4531 61.1991C68.9405 59.1151 73.6817 57.8895 78.6688 57.8884C82.7015 57.8876 86.7343 57.8883 90.767 57.8883C91.0073 57.8883 91.2476 57.8883 91.4733 57.8883C91.4733 50.9426 91.4733 44.0564 91.4733 37.0907C91.7083 37.0907 91.9682 37.0907 92.228 37.0907C107.379 37.0907 122.529 37.1182 137.68 37.0731C141.963 37.0604 146.158 37.5208 150.295 38.6486C156.463 40.3299 161.831 43.4381 166.585 47.7434C169.834 50.6859 172.368 54.1529 174.141 58.1533C175.583 61.4053 176.555 64.815 176.493 68.4509C176.45 71.0023 176.554 73.5453 176.001 76.0802C175.451 78.6025 174.596 80.9892 173.45 83.2718C170.238 89.6726 165.251 94.2923 159.173 97.7929C158.403 98.2358 157.608 98.6321 156.722 99.1052C156.926 99.2079 157.101 99.3435 157.297 99.3869C159.726 99.9268 161.876 101.133 163.963 102.417C167.086 104.339 169.834 106.763 172.267 109.52C173.392 110.794 174.395 112.203 175.29 113.654C177.192 116.735 178.7 120.019 179.562 123.563C180.122 125.866 180.668 128.19 180.612 130.588C180.561 132.801 180.612 135.038 180.305 137.219C179.621 142.082 178.018 146.633 175.416 150.818C171.984 156.338 167.327 160.474 161.699 163.515C158.273 165.366 154.6 166.537 150.772 167.159C149.35 167.391 147.901 167.541 146.462 167.559C142.207 167.61 137.951 167.577 133.696 167.577C133.455 167.577 133.214 167.577 132.907 167.577C132.907 167.876 132.907 168.117 132.907 168.358C132.907 174.784 132.898 181.211 132.922 187.638C132.924 188.241 132.756 188.518 132.172 188.535C131.906 188.543 131.641 188.588 131.375 188.588C116.447 188.591 101.519 188.627 86.5917 188.572C80.9015 188.551 75.2982 187.763 69.9825 185.574C67.0091 184.35 64.1389 182.868 61.5689 180.891C59.9212 179.623 58.2868 178.307 56.8154 176.839C53.7572 173.786 51.3439 170.264 49.7965 166.162C48.8183 163.569 48.0757 160.921 47.8806 158.146C47.6768 155.247 47.8082 152.365 48.4024 149.507C49.1251 146.031 50.5517 142.859 52.3506 139.786ZM159.129 110.667C156.753 108.785 154.231 107.248 151.181 106.728C148.112 106.205 145.19 106.652 142.534 108.195C139.445 109.99 136.494 112.029 133.471 113.944C133.039 114.217 132.906 114.533 132.904 115.044C132.854 127.942 132.787 140.839 132.723 153.737C132.721 154.003 132.722 154.268 132.722 154.602C129.633 154.672 126.617 154.741 123.527 154.811C123.527 154.466 123.527 154.177 123.527 153.888C123.527 129.066 123.527 104.243 123.528 79.4203C123.528 77.0896 123.197 74.8158 122.281 72.6691C121.093 69.8837 119.548 67.3421 117.212 65.369C115.592 64.0007 113.824 62.8752 111.902 62.0071C109.746 61.0337 107.491 60.3916 105.127 60.3806C97.4633 60.345 89.7989 60.327 82.1357 60.3983C80.4133 60.4143 78.6644 60.6871 76.9812 61.079C74.5738 61.6395 72.2414 62.4876 70.0194 63.6152C67.5363 64.8753 65.1972 66.3814 63.1507 68.2728C59.2487 71.8789 56.3358 76.1887 54.61 81.2892C53.3022 85.1544 52.8008 89.141 53.1298 93.1904C53.4547 97.1904 54.5754 100.978 56.4482 104.557C59.2943 109.997 63.4248 114.124 68.6229 117.172C70.0932 118.034 71.6892 118.761 73.4476 118.863C74.4686 118.923 75.5073 119.027 76.5132 118.903C77.7824 118.747 79.1152 118.583 80.2648 118.065C84.021 116.374 87.3478 113.912 90.8168 111.707C91.2747 111.416 91.3929 111.062 91.3949 110.544C91.4471 97.5336 91.513 84.5232 91.5762 71.5129C91.5775 71.2493 91.5764 70.9858 91.5764 70.8266C94.691 70.8266 97.7265 70.8266 100.805 70.8266C100.805 71.2279 100.804 71.4963 100.805 71.7648C100.858 96.6326 100.918 121.5 100.95 146.368C100.953 148.478 101.198 150.518 101.966 152.479C102.845 154.721 103.928 156.882 105.568 158.624C107.272 160.433 109.188 162.006 111.441 163.155C114.148 164.535 116.978 165.269 119.981 165.281C127.11 165.31 134.24 165.362 141.368 165.248C143.618 165.212 145.894 164.834 148.099 164.338C151.426 163.589 154.479 162.078 157.371 160.255C160.256 158.435 162.69 156.085 164.861 153.459C166.546 151.422 167.813 149.101 168.903 146.688C170.169 143.885 170.94 140.896 171.157 137.861C171.413 134.286 171.359 130.683 170.389 127.15C169.418 123.615 167.898 120.364 165.796 117.414C163.961 114.839 161.769 112.582 159.129 110.667ZM109.619 186.097C114.242 186.097 118.865 186.097 123.49 186.097C123.49 179.871 123.49 173.75 123.49 167.45C121.142 167.45 118.829 167.459 116.517 167.446C115.516 167.441 114.504 167.474 113.515 167.346C110.371 166.94 107.417 165.93 104.612 164.413C101.281 162.611 98.5682 160.111 96.3308 157.068C94.4722 154.54 93.1564 151.716 92.4212 148.653C92.0755 147.213 91.8181 145.714 91.7924 144.237C91.6712 137.291 91.6442 130.344 91.5841 123.397C91.5818 123.134 91.5838 122.871 91.5838 122.414C91.1281 122.614 90.7989 122.709 90.5206 122.887C85.5059 126.09 80.4988 129.305 75.4868 132.512C73.151 134.007 70.7557 135.413 68.4811 136.998C65.3373 139.188 62.8284 142.047 60.8302 145.325C59.434 147.616 58.3924 150.088 57.7435 152.728C57.2513 154.73 57.2599 156.75 57.2006 158.786C57.1109 161.865 57.7636 164.754 58.9975 167.537C59.9976 169.793 61.1044 172.004 62.681 173.892C65.9653 177.825 69.9013 180.901 74.5679 183.019C78.9059 184.988 83.4391 186.029 88.1641 186.078C95.2706 186.152 102.378 186.097 109.619 186.097ZM166.057 59.6506C164.221 54.2321 160.857 49.9767 156.407 46.538C152.573 43.5752 148.281 41.5809 143.624 40.4383C141.752 39.9791 139.804 39.61 137.889 39.598C125.858 39.5229 113.826 39.56 101.795 39.56C101.535 39.56 101.275 39.56 101.022 39.56C101.022 45.7093 101.022 51.7798 101.022 58.0094C102.899 58.0094 104.724 58.0395 106.547 58.0031C110.387 57.9264 114.083 58.592 117.617 60.1335C120.13 61.2298 122.487 62.6331 124.516 64.4763C127.454 67.1451 129.764 70.3175 131.141 74.1199C132.086 76.7281 132.688 79.4139 132.722 82.1991C132.805 88.8742 132.851 95.5498 132.913 102.225C132.915 102.482 132.934 102.74 132.951 103.13C133.513 102.828 133.974 102.614 134.401 102.344C140.996 98.1655 147.589 93.9836 154.176 89.7932C157.281 87.8179 159.969 85.3701 162.18 82.394C162.663 81.7442 163.185 81.1162 163.594 80.4204C166.193 75.9995 167.516 71.2373 167.279 66.0577C167.181 63.8933 166.763 61.7994 166.057 59.6506Z" fill="url(#paint0_linear_2223_5515)"/>
<path d="M57.7268 139.786C59.134 138.002 60.4142 136.163 61.9155 134.535C64.7879 131.419 68.2167 129.025 71.9499 127.077C72.2252 126.933 72.462 126.713 72.8244 126.45C72.4846 126.301 72.3125 126.21 72.131 126.148C68.8967 125.036 65.8956 123.431 63.1876 121.354C59.9774 118.891 57.1206 116.04 54.9317 112.558C53.1973 109.799 51.6839 106.926 50.7605 103.785C49.9397 100.993 49.1453 98.1784 49.2379 95.2089C49.2626 94.4176 49.2795 93.6227 49.2353 92.8333C49.0186 88.9646 49.8492 85.2652 51.1056 81.6684C52.718 77.0523 55.2126 72.9724 58.5292 69.3809C61.7687 65.873 65.5717 63.1764 69.8293 61.1991C74.3168 59.1151 79.0579 57.8895 84.045 57.8884C88.0777 57.8876 92.1105 57.8883 96.1432 57.8883C96.3835 57.8883 96.6239 57.8883 96.8495 57.8883C96.8495 50.9426 96.8495 44.0564 96.8495 37.0907C97.0845 37.0907 97.3444 37.0907 97.6042 37.0907C112.755 37.0907 127.906 37.1182 143.056 37.0731C147.339 37.0604 151.534 37.5208 155.672 38.6486C161.839 40.3299 167.207 43.4381 171.961 47.7434C175.21 50.6859 177.744 54.1529 179.517 58.1533C180.959 61.4053 181.931 64.815 181.87 68.4509C181.827 71.0023 181.931 73.5453 181.378 76.0802C180.827 78.6025 179.972 80.9892 178.826 83.2718C175.614 89.6726 170.627 94.2923 164.549 97.7929C163.78 98.2358 162.985 98.6321 162.098 99.1052C162.302 99.2079 162.478 99.3435 162.673 99.3869C165.103 99.9268 167.252 101.133 169.339 102.417C172.462 104.339 175.211 106.763 177.644 109.52C178.768 110.794 179.771 112.203 180.667 113.654C182.568 116.735 184.076 120.019 184.938 123.563C185.499 125.866 186.044 128.19 185.988 130.588C185.937 132.801 185.988 135.038 185.681 137.219C184.997 142.082 183.394 146.633 180.792 150.818C177.36 156.338 172.704 160.474 167.075 163.515C163.649 165.366 159.976 166.537 156.148 167.159C154.726 167.391 153.277 167.541 151.838 167.559C147.584 167.61 143.328 167.577 139.072 167.577C138.831 167.577 138.591 167.577 138.284 167.577C138.284 167.876 138.284 168.117 138.284 168.358C138.284 174.784 138.274 181.211 138.298 187.638C138.301 188.241 138.132 188.518 137.549 188.535C137.283 188.543 137.017 188.588 136.751 188.588C121.824 188.591 106.896 188.627 91.9679 188.572C86.2777 188.551 80.6744 187.763 75.3588 185.574C72.3854 184.35 69.5151 182.868 66.9451 180.891C65.2974 179.623 63.663 178.307 62.1916 176.839C59.1334 173.786 56.7201 170.264 55.1727 166.162C54.1945 163.569 53.452 160.921 53.2568 158.146C53.053 155.247 53.1844 152.365 53.7786 149.507C54.5013 146.031 55.9279 142.859 57.7268 139.786ZM164.505 110.667C162.129 108.785 159.607 107.248 156.557 106.728C153.488 106.205 150.567 106.652 147.911 108.195C144.821 109.99 141.87 112.029 138.847 113.944C138.415 114.217 138.282 114.533 138.28 115.044C138.231 127.942 138.163 140.839 138.099 153.737C138.097 154.003 138.099 154.268 138.099 154.602C135.009 154.672 131.993 154.741 128.903 154.811C128.903 154.466 128.903 154.177 128.903 153.888C128.903 129.066 128.903 104.243 128.904 79.4203C128.904 77.0896 128.573 74.8158 127.657 72.6691C126.469 69.8837 124.924 67.3421 122.588 65.369C120.968 64.0007 119.201 62.8752 117.278 62.0071C115.123 61.0337 112.867 60.3916 110.503 60.3806C102.839 60.345 95.1751 60.327 87.5119 60.3983C85.7895 60.4143 84.0406 60.6871 82.3575 61.079C79.9501 61.6395 77.6177 62.4876 75.3957 63.6152C72.9125 64.8753 70.5734 66.3814 68.5269 68.2728C64.6249 71.8789 61.712 76.1887 59.9862 81.2892C58.6784 85.1544 58.177 89.141 58.506 93.1904C58.831 97.1904 59.9516 100.978 61.8244 104.557C64.6705 109.997 68.801 114.124 73.9992 117.172C75.4694 118.034 77.0655 118.761 78.8239 118.863C79.8448 118.923 80.8835 119.027 81.8894 118.903C83.1586 118.747 84.4915 118.583 85.6411 118.065C89.3973 116.374 92.724 113.912 96.193 111.707C96.651 111.416 96.7691 111.062 96.7711 110.544C96.8233 97.5336 96.8892 84.5232 96.9525 71.5129C96.9537 71.2493 96.9526 70.9858 96.9526 70.8266C100.067 70.8266 103.103 70.8266 106.181 70.8266C106.181 71.2279 106.181 71.4963 106.181 71.7648C106.234 96.6326 106.295 121.5 106.327 146.368C106.329 148.478 106.574 150.518 107.342 152.479C108.221 154.721 109.304 156.882 110.944 158.624C112.648 160.433 114.565 162.006 116.818 163.155C119.524 164.535 122.355 165.269 125.357 165.281C132.486 165.31 139.617 165.362 146.744 165.248C148.994 165.212 151.271 164.834 153.475 164.338C156.803 163.589 159.856 162.078 162.747 160.255C165.632 158.435 168.067 156.085 170.237 153.459C171.922 151.422 173.189 149.101 174.279 146.688C175.545 143.885 176.316 140.896 176.534 137.861C176.79 134.286 176.736 130.683 175.765 127.15C174.795 123.615 173.274 120.364 171.172 117.414C169.337 114.839 167.145 112.582 164.505 110.667ZM114.995 186.097C119.618 186.097 124.241 186.097 128.866 186.097C128.866 179.871 128.866 173.75 128.866 167.45C126.518 167.45 124.206 167.459 121.893 167.446C120.892 167.441 119.88 167.474 118.892 167.346C115.747 166.94 112.793 165.93 109.988 164.413C106.657 162.611 103.944 160.111 101.707 157.068C99.8484 154.54 98.5326 151.716 97.7974 148.653C97.4517 147.213 97.1943 145.714 97.1686 144.237C97.0474 137.291 97.0205 130.344 96.9603 123.397C96.958 123.134 96.96 122.871 96.96 122.414C96.5043 122.614 96.1752 122.709 95.8968 122.887C90.8821 126.09 85.8751 129.305 80.863 132.512C78.5272 134.007 76.1319 135.413 73.8573 136.998C70.7135 139.188 68.2046 142.047 66.2065 145.325C64.8102 147.616 63.7686 150.088 63.1197 152.728C62.6276 154.73 62.6361 156.75 62.5768 158.786C62.4871 161.865 63.1398 164.754 64.3738 167.537C65.3738 169.793 66.4806 172.004 68.0572 173.892C71.3416 177.825 75.2775 180.901 79.9442 183.019C84.2822 184.988 88.8153 186.029 93.5404 186.078C100.647 186.152 107.755 186.097 114.995 186.097ZM171.434 59.6506C169.597 54.2321 166.234 49.9767 161.784 46.538C157.949 43.5752 153.657 41.5809 149 40.4383C147.128 39.9791 145.181 39.61 143.265 39.598C131.234 39.5229 119.203 39.56 107.171 39.56C106.911 39.56 106.651 39.56 106.399 39.56C106.399 45.7093 106.399 51.7798 106.399 58.0094C108.276 58.0094 110.1 58.0395 111.923 58.0031C115.763 57.9264 119.459 58.592 122.993 60.1335C125.506 61.2298 127.863 62.6331 129.892 64.4763C132.83 67.1451 135.14 70.3175 136.517 74.1199C137.462 76.7281 138.064 79.4139 138.098 82.1991C138.181 88.8742 138.227 95.5498 138.289 102.225C138.291 102.482 138.31 102.74 138.327 103.13C138.889 102.828 139.351 102.614 139.777 102.344C146.372 98.1655 152.965 93.9836 159.552 89.7932C162.658 87.8179 165.346 85.3701 167.556 82.394C168.039 81.7442 168.561 81.1162 168.97 80.4204C171.569 75.9995 172.892 71.2373 172.656 66.0577C172.557 63.8933 172.139 61.7994 171.434 59.6506Z" fill="url(#paint1_linear_2223_5515)"/>
<defs>
<linearGradient id="paint0_linear_2223_5515" x1="164.639" y1="57.6722" x2="66.2073" y2="167.136" gradientUnits="userSpaceOnUse">
<stop stop-color="#DD0CC8"/>
<stop offset="0.345" stop-color="#BA19EB"/>
<stop offset="0.69" stop-color="#5E00FF"/>
<stop offset="1" stop-color="#3B01B7"/>
</linearGradient>
<linearGradient id="paint1_linear_2223_5515" x1="170.015" y1="57.6722" x2="71.5835" y2="167.136" gradientUnits="userSpaceOnUse">
<stop stop-color="#DD0CC8"/>
<stop offset="0.345" stop-color="#BA19EB"/>
<stop offset="0.69" stop-color="#5E00FF"/>
<stop offset="1" stop-color="#3B01B7"/>
</linearGradient>
</defs>
</svg>
