<svg width="18" height="17" viewBox="0 0 18 17" fill="none" xmlns="http://www.w3.org/2000/svg">
<path d="M15.1535 5.94925L14.9584 6.39829C14.9279 6.47141 14.8764 6.53387 14.8105 6.5778C14.7446 6.62174 14.6671 6.64518 14.5879 6.64518C14.5087 6.64518 14.4312 6.62174 14.3653 6.5778C14.2994 6.53387 14.2479 6.47141 14.2174 6.39829L14.0222 5.94925C13.6791 5.15489 13.0507 4.51799 12.261 4.16422L11.6588 3.89528C11.5858 3.86167 11.5239 3.80782 11.4805 3.74012C11.4371 3.67241 11.4141 3.59369 11.4141 3.51328C11.4141 3.43287 11.4371 3.35414 11.4805 3.28644C11.5239 3.21873 11.5858 3.16489 11.6588 3.13128L12.2277 2.8782C13.0372 2.51436 13.6764 1.8539 14.0135 1.03287L14.2142 0.548139C14.2437 0.473051 14.2951 0.408587 14.3618 0.36315C14.4284 0.317712 14.5072 0.293409 14.5879 0.293409C14.6686 0.293409 14.7474 0.317712 14.814 0.36315C14.8807 0.408587 14.9321 0.473051 14.9616 0.548139L15.1623 1.03208C15.499 1.85326 16.1379 2.514 16.9473 2.8782L17.5169 3.13207C17.5898 3.16578 17.6514 3.21961 17.6946 3.28723C17.7379 3.35485 17.7608 3.43343 17.7608 3.51367C17.7608 3.59392 17.7379 3.6725 17.6946 3.74012C17.6514 3.80774 17.5898 3.86157 17.5169 3.89528L16.914 4.16343C16.1245 4.51755 15.4963 5.15474 15.1535 5.94925ZM8.2411 1.08762C3.85944 1.08762 0.307617 4.63944 0.307617 9.0211C0.307617 10.3722 0.64479 11.6439 1.2406 12.757L0.307617 16.9546L4.50522 16.0216C5.65453 16.6359 6.93793 16.9564 8.2411 16.9546C12.6228 16.9546 16.1746 13.4028 16.1746 9.0211C16.1746 8.70165 16.1561 8.38695 16.1191 8.07702L14.5435 8.26345C14.5731 8.51203 14.5879 8.76458 14.5879 9.0211C14.5879 10.7044 13.9192 12.3187 12.729 13.509C11.5387 14.6992 9.92438 15.3679 8.2411 15.3679C7.19891 15.3697 6.17247 15.1135 5.25335 14.6221L4.7353 14.3453L2.3973 14.8649L2.91694 12.5269L2.63927 12.0089C2.14823 11.0897 1.8923 10.0632 1.89431 9.0211C1.89407 8.05233 2.1156 7.09636 2.54192 6.22645C2.96825 5.35653 3.58806 4.59575 4.35387 4.0024C5.11967 3.40906 6.01114 2.9989 6.95997 2.80335C7.90879 2.60779 8.88979 2.63204 9.8278 2.87424L10.2229 1.33752C9.58821 1.17409 8.92418 1.08762 8.2411 1.08762ZM5.86106 9.0211H4.27436C4.27436 10.0731 4.69228 11.0821 5.43619 11.826C6.1801 12.5699 7.18906 12.9878 8.2411 12.9878C9.29315 12.9878 10.3021 12.5699 11.046 11.826C11.7899 11.0821 12.2078 10.0731 12.2078 9.0211H10.6211C10.6211 9.65233 10.3704 10.2577 9.92405 10.704C9.4777 11.1504 8.87233 11.4011 8.2411 11.4011C7.60988 11.4011 7.0045 11.1504 6.55816 10.704C6.11181 10.2577 5.86106 9.65233 5.86106 9.0211Z" fill="url(#paint0_linear_31_4767)"/>
<defs>
<linearGradient id="paint0_linear_31_4767" x1="1.22621" y1="0.293412" x2="18.5937" y2="2.70868" gradientUnits="userSpaceOnUse">
<stop stop-color="#7E6DF1"/>
<stop offset="1" stop-color="#E25FB2"/>
</linearGradient>
</defs>
</svg>
