<svg width="42" height="42" viewBox="0 0 42 42" fill="none" xmlns="http://www.w3.org/2000/svg">
<path d="M27.7498 17.6251C27.7498 17.1776 27.572 16.7484 27.2556 16.4319C26.9391 16.1154 26.5099 15.9376 26.0623 15.9376H15.9373C15.4898 15.9376 15.0605 16.1154 14.7441 16.4319C14.4276 16.7484 14.2498 17.1776 14.2498 17.6251C14.2498 18.0727 14.4276 18.5019 14.7441 18.8184C15.0605 19.1348 15.4898 19.3126 15.9373 19.3126H26.0623C26.5099 19.3126 26.9391 19.1348 27.2556 18.8184C27.572 18.5019 27.7498 18.0727 27.7498 17.6251ZM26.0623 22.6876C26.5099 22.6876 26.9391 22.8654 27.2556 23.1819C27.572 23.4983 27.7498 23.9276 27.7498 24.3751C27.7498 24.8227 27.572 25.2519 27.2556 25.5684C26.9391 25.8848 26.5099 26.0626 26.0623 26.0626H19.3123C18.8648 26.0626 18.4355 25.8848 18.1191 25.5684C17.8026 25.2519 17.6248 24.8227 17.6248 24.3751C17.6248 23.9276 17.8026 23.4983 18.1191 23.1819C18.4355 22.8654 18.8648 22.6876 19.3123 22.6876H26.0623ZM41.2498 21.0001C41.249 16.5419 39.7769 12.2086 37.0619 8.67238C34.347 5.13616 30.541 2.59472 26.2343 1.4423C21.9276 0.289883 17.361 0.590908 13.2428 2.29868C9.12467 4.00645 5.68519 7.0255 3.45794 10.8875C1.23069 14.7495 0.340179 19.2386 0.924541 23.6583C1.5089 28.0781 3.53547 32.1814 6.68988 35.3319C9.84429 38.4823 13.9502 40.5038 18.3707 41.0826C22.7912 41.6614 27.2791 40.7653 31.1383 38.5332L39.0291 41.1657C39.3206 41.2631 39.6332 41.2789 39.933 41.2116C40.2329 41.1443 40.5087 40.9964 40.7307 40.7838C40.9527 40.5712 41.1123 40.302 41.1925 40.0053C41.2727 39.7086 41.2704 39.3957 41.1857 39.1002L38.7827 30.6931C40.4026 27.7192 41.2509 24.3866 41.2498 21.0001ZM20.9998 4.12515C23.9793 4.12496 26.9058 4.91365 29.4817 6.41105C32.0576 7.90845 34.1911 10.0612 35.6654 12.6504C37.1396 15.2396 37.9021 18.173 37.8752 21.1524C37.8483 24.1318 37.0331 27.0509 35.5123 29.6131C35.3953 29.811 35.32 30.0308 35.291 30.2589C35.262 30.487 35.2798 30.7186 35.3436 30.9395L37.0614 36.947L31.4657 35.084C31.228 35.0047 30.9757 34.9793 30.727 35.0096C30.4783 35.04 30.2395 35.1253 30.0279 35.2595C27.8164 36.6591 25.3096 37.5251 22.7058 37.7891C20.1019 38.053 17.4724 37.7077 15.0249 36.7804C12.5775 35.8532 10.3793 34.3693 8.6041 32.4462C6.82888 30.5231 5.52531 28.2135 4.79641 25.6998C4.06752 23.1862 3.93329 20.5374 4.40434 17.963C4.87538 15.3885 5.93879 12.9589 7.5105 10.8662C9.08221 8.77346 11.1191 7.07501 13.4603 5.90507C15.8014 4.73512 18.3826 4.12576 20.9998 4.12515Z" fill="#888888"/>
</svg>
