<svg width="16" height="16" viewBox="0 0 16 16" fill="none" xmlns="http://www.w3.org/2000/svg">
<path d="M7.99984 8C9.2485 8 10.3798 8.41333 11.2098 8.99133C11.9985 9.54133 12.6665 10.3587 12.6665 11.238C12.6665 11.7207 12.4605 12.1207 12.1358 12.418C11.8305 12.6987 11.4318 12.8807 11.0212 13.0047C10.2005 13.2533 9.11984 13.3333 7.99984 13.3333C6.87984 13.3333 5.79917 13.2533 4.9785 13.0047C4.56784 12.8807 4.16917 12.6987 3.86317 12.418C3.53984 12.1213 3.33317 11.7213 3.33317 11.2387C3.33317 10.3593 4.00117 9.542 4.78984 8.992C5.61984 8.41333 6.75117 8 7.99984 8ZM12.6665 8.66667C13.3625 8.66667 13.9945 8.89667 14.4618 9.222C14.8885 9.52 15.3332 10.0153 15.3332 10.6193C15.3332 10.964 15.1832 11.25 14.9598 11.4547C14.7558 11.642 14.5038 11.752 14.2738 11.8213C13.9605 11.916 13.5905 11.9647 13.2065 11.986C13.2878 11.756 13.3332 11.506 13.3332 11.238C13.3332 10.2147 12.6938 9.34533 11.9785 8.742C12.2044 8.69209 12.4351 8.66683 12.6665 8.66667ZM3.33317 8.66667C3.57184 8.66756 3.80117 8.69267 4.02117 8.742C3.3065 9.34533 2.6665 10.2147 2.6665 11.238C2.6665 11.506 2.71184 11.756 2.79317 11.986C2.40917 11.9647 2.03984 11.916 1.72584 11.8213C1.49584 11.752 1.24384 11.642 1.03917 11.4547C0.921855 11.3496 0.828026 11.2209 0.763811 11.0771C0.699596 10.9333 0.666439 10.7775 0.666504 10.62C0.666504 10.0167 1.1105 9.52067 1.53784 9.22267C2.06641 8.8603 2.69231 8.66646 3.33317 8.66667ZM12.3332 4.66667C12.7752 4.66667 13.1991 4.84226 13.5117 5.15482C13.8242 5.46738 13.9998 5.89131 13.9998 6.33333C13.9998 6.77536 13.8242 7.19928 13.5117 7.51184C13.1991 7.82441 12.7752 8 12.3332 8C11.8911 8 11.4672 7.82441 11.1547 7.51184C10.8421 7.19928 10.6665 6.77536 10.6665 6.33333C10.6665 5.89131 10.8421 5.46738 11.1547 5.15482C11.4672 4.84226 11.8911 4.66667 12.3332 4.66667ZM3.6665 4.66667C4.10853 4.66667 4.53245 4.84226 4.84502 5.15482C5.15758 5.46738 5.33317 5.89131 5.33317 6.33333C5.33317 6.77536 5.15758 7.19928 4.84502 7.51184C4.53245 7.82441 4.10853 8 3.6665 8C3.22448 8 2.80055 7.82441 2.48799 7.51184C2.17543 7.19928 1.99984 6.77536 1.99984 6.33333C1.99984 5.89131 2.17543 5.46738 2.48799 5.15482C2.80055 4.84226 3.22448 4.66667 3.6665 4.66667ZM7.99984 2C8.70708 2 9.38536 2.28095 9.88546 2.78105C10.3856 3.28115 10.6665 3.95942 10.6665 4.66667C10.6665 5.37391 10.3856 6.05219 9.88546 6.55229C9.38536 7.05238 8.70708 7.33333 7.99984 7.33333C7.29259 7.33333 6.61432 7.05238 6.11422 6.55229C5.61412 6.05219 5.33317 5.37391 5.33317 4.66667C5.33317 3.95942 5.61412 3.28115 6.11422 2.78105C6.61432 2.28095 7.29259 2 7.99984 2Z" fill="white"/>
</svg>
